<?xml version="1.0" encoding="UTF-8"?> <svg xmlns="http://www.w3.org/2000/svg" width="901" height="391" viewBox="0 0 901 391" fill="none"><path d="M240.227 324.011C244.716 327.728 246.971 333.872 246.971 342.488V388.68H228.606V346.956C228.606 343.347 228.134 340.575 227.167 338.642C225.427 335.118 222.076 333.357 217.179 333.357C211.143 333.357 206.998 335.935 204.742 341.091C203.583 343.82 203.003 347.3 203.003 351.533V388.68H185.067V320.186H202.444V330.198C204.742 326.675 206.912 324.14 208.952 322.593C212.625 319.821 217.286 318.446 222.936 318.446C229.959 318.425 235.737 320.294 240.227 324.011Z" fill="#949498"></path><path d="M255.821 333.485V320.702H265.379V301.559H283.121V320.702H294.269V333.485H283.121V369.752C283.121 372.566 283.486 374.306 284.195 375.015C284.904 375.703 287.095 376.047 290.746 376.047C291.283 376.047 291.863 376.047 292.486 376.025C293.088 376.004 293.689 375.982 294.269 375.939V389.346L285.763 389.668C277.279 389.969 271.501 388.486 268.386 385.264C266.367 383.201 265.358 380.043 265.358 375.767V333.528H255.821V333.485Z" fill="#949498"></path><path d="M349.665 321.368C354.046 323.452 357.655 326.718 360.512 331.187C363.648 336.107 364.636 340.468 365.516 344.915C366.247 348.546 366.934 354.068 366.247 360.9C352.027 360.9 337.808 360.9 323.588 360.9C323.975 362.748 325.328 367.861 329.71 370.31C331.364 371.234 333.018 371.449 336.304 371.922C340.557 372.502 343.951 372.459 345.626 372.394C349.407 372.265 355.034 371.771 362.015 370.031C362.037 374.929 362.08 379.828 362.101 384.726C361.478 384.963 360.619 385.307 359.567 385.65C358.042 386.166 356.86 386.467 355.98 386.682C352.521 387.562 350.781 388.014 349.944 388.185C344.424 389.367 338.366 388.894 335.51 388.658C330.569 388.271 327.691 388.057 323.932 386.703C320.173 385.35 316.651 383.266 313.407 380.494C307.028 375.037 303.827 366.185 303.827 353.896C303.827 342.402 306.706 333.571 312.462 327.427C318.219 321.282 325.693 318.21 334.887 318.21C340.364 318.253 345.283 319.284 349.665 321.368ZM325.908 336.773C324.641 338.277 324.082 339.802 323.889 340.382C323.094 342.788 323.352 344.894 323.546 345.925C331.428 345.904 339.311 345.861 347.194 345.839C347.259 343.519 346.915 341.65 346.572 340.382C346.142 338.749 345.777 337.417 344.66 336.15C343.736 335.118 342.77 334.624 341.846 334.151C340.665 333.571 338.237 332.411 334.93 332.562C334.027 332.605 329.152 332.927 325.908 336.773Z" fill="#949498"></path><path d="M414.017 318.468C414.253 318.489 414.769 318.511 415.564 318.554V336.923C414.425 336.794 413.416 336.708 412.535 336.665C411.654 336.622 410.946 336.601 410.387 336.601C403.17 336.601 398.316 338.943 395.845 343.648C394.471 346.29 393.762 350.351 393.762 355.851V388.637H375.698V320.036H392.817V332.003C395.588 327.427 397.993 324.312 400.055 322.614C403.406 319.8 407.767 318.403 413.136 318.403C413.502 318.425 413.781 318.446 414.017 318.468Z" fill="#949498"></path><path d="M482.751 324.011C487.241 327.728 489.496 333.872 489.496 342.488V388.68H471.131V346.956C471.131 343.347 470.658 340.575 469.692 338.642C467.952 335.118 464.601 333.357 459.704 333.357C453.668 333.357 449.523 335.935 447.267 341.091C446.107 343.82 445.527 347.3 445.527 351.533V388.68H427.592V320.186H444.969V330.198C447.267 326.675 449.437 324.14 451.477 322.593C455.15 319.821 459.811 318.446 465.46 318.446C472.484 318.425 478.262 320.294 482.751 324.011Z" fill="#949498"></path><path d="M529.963 343.863C533.142 343.454 535.419 342.939 536.772 342.337C539.221 341.284 537.932 337.374 537.932 337.374C536.45 334.989 536.987 335.484 535.118 334.452C532.09 332.776 528.009 332.862 526.827 332.905C524.959 332.97 525.302 332.583 523.09 332.884C522.295 332.991 521.006 333.206 519.159 333.614C514.734 334.603 510.417 336.064 507.689 337.073C506.68 332.884 505.67 328.694 504.639 324.505C506.465 323.388 509.064 321.97 512.372 320.767C519.374 318.253 525.195 318.339 529.62 318.446C534.925 318.575 539.887 320.1 546.911 323.753C552.474 326.653 557.113 331.144 557.113 339.157V369.687C557.113 371.814 557.156 374.371 557.242 377.379C557.371 379.656 557.35 386.596 557.35 386.596C551.765 386.574 546.159 386.553 540.574 386.553C540.832 385.607 540.918 379.785 540.66 378.775C538.297 381.375 535.569 383.609 532.476 385.435C528.782 387.584 524.615 388.68 519.954 388.68C514.004 388.68 509.107 386.961 505.219 383.523C501.353 380.086 499.398 375.209 499.398 368.892C499.398 360.707 502.813 352.564 509.042 348.89C512.458 346.892 517.484 345.474 524.121 344.615L529.963 343.863ZM539.221 354.369C538.061 355.078 536.901 354.476 535.741 354.906C534.581 355.357 534.001 355.035 531.961 355.4L528.352 355.722C524.529 356.388 523.82 356.066 522.145 357.033C519.31 358.666 517.913 361.201 517.913 364.638C517.913 367.711 518.773 369.923 520.512 371.277C522.231 372.631 524.336 373.318 526.806 373.318C530.737 373.318 530.78 374.5 534.087 372.222C537.395 369.966 539.092 365.82 539.221 359.826V354.369Z" fill="#949498"></path><path d="M834.843 343.863C838.022 343.454 840.299 342.939 841.652 342.337C844.101 341.284 842.812 337.374 842.812 337.374C841.33 334.989 841.867 335.484 839.998 334.452C836.97 332.776 832.889 332.862 831.707 332.905C829.838 332.97 830.182 332.583 827.97 332.884C827.175 332.991 825.886 333.206 824.039 333.614C819.614 334.603 815.297 336.064 812.569 337.073C811.559 332.884 810.55 328.694 809.519 324.505C811.345 323.388 813.944 321.97 817.252 320.767C824.254 318.253 830.075 318.339 834.5 318.446C839.805 318.575 844.767 320.1 851.79 323.753C857.354 326.653 861.993 331.144 861.993 339.157V369.687C861.993 371.814 862.036 374.371 862.122 377.379C862.251 379.656 862.23 386.596 862.23 386.596C856.645 386.574 851.039 386.553 845.454 386.553C845.712 385.607 845.798 379.785 845.54 378.775C843.177 381.375 840.449 383.609 837.356 385.435C833.662 387.584 829.495 388.68 824.834 388.68C818.884 388.68 813.987 386.961 810.099 383.523C806.233 380.086 804.278 375.209 804.278 368.892C804.278 360.707 807.693 352.564 813.922 348.89C817.337 346.892 822.364 345.474 829.001 344.615L834.843 343.863ZM844.101 354.369C842.941 355.078 841.781 354.476 840.621 354.906C839.461 355.357 838.881 355.035 836.841 355.4L833.232 355.722C829.409 356.388 828.7 356.066 827.025 357.033C824.189 358.666 822.793 361.201 822.793 364.638C822.793 367.711 823.652 369.923 825.392 371.277C827.111 372.631 829.216 373.318 831.686 373.318C835.616 373.318 835.659 374.5 838.967 372.222C842.275 369.966 843.972 365.82 844.101 359.826V354.369Z" fill="#949498"></path><path d="M567.101 333.485V320.702H576.66V301.559H594.402V320.702H605.55V333.485H594.402V369.752C594.402 372.566 594.767 374.306 595.476 375.015C596.185 375.724 598.376 376.047 602.027 376.047C602.564 376.047 603.144 376.047 603.767 376.025C604.39 376.004 604.97 375.982 605.55 375.939V389.346L597.044 389.668C588.559 389.969 582.781 388.486 579.667 385.264C577.648 383.201 576.638 380.043 576.638 375.767V333.528H567.101V333.485Z" fill="#949498"></path><path d="M639.015 320.079H620.822V388.68H639.015V320.079Z" fill="#949498"></path><path d="M629.564 312.731C635.97 312.731 641.163 307.537 641.163 301.13C641.163 294.722 635.97 289.528 629.564 289.528C623.158 289.528 617.965 294.722 617.965 301.13C617.965 307.537 623.158 312.731 629.564 312.731Z" fill="#949498"></path><path d="M710.67 380.279C704.871 387.434 696.086 391 684.293 391C672.501 391 663.716 387.434 657.917 380.279C652.117 373.125 649.239 364.531 649.239 354.455C649.239 344.55 652.139 335.978 657.917 328.737C663.695 321.497 672.501 317.866 684.293 317.866C696.086 317.866 704.871 321.497 710.67 328.737C716.47 335.978 719.348 344.572 719.348 354.455C719.348 364.531 716.448 373.146 710.67 380.279ZM696.322 370.375C699.136 366.636 700.532 361.351 700.532 354.476C700.532 347.601 699.136 342.316 696.322 338.599C693.508 334.882 689.491 333.034 684.25 333.034C679.009 333.034 674.971 334.882 672.136 338.599C669.301 342.316 667.883 347.601 667.883 354.476C667.883 361.351 669.301 366.658 672.136 370.375C674.971 374.113 679.009 375.961 684.25 375.961C689.491 375.961 693.508 374.092 696.322 370.375Z" fill="#949498"></path><path d="M784.581 324.011C789.07 327.728 791.326 333.872 791.326 342.488V388.68H772.961V346.956C772.961 343.347 772.488 340.575 771.522 338.642C769.782 335.118 766.431 333.357 761.534 333.357C755.498 333.357 751.352 335.935 749.097 341.091C747.937 343.82 747.357 347.3 747.357 351.533V388.68H729.422V320.186H746.799V330.198C749.097 326.675 751.266 324.14 753.307 322.593C756.98 319.821 761.641 318.446 767.29 318.446C774.314 318.425 780.092 320.294 784.581 324.011Z" fill="#949498"></path><path d="M896.425 388.68H878.489V295.909H896.425V388.68Z" fill="#949498"></path><path d="M102.199 0.0859375H58.145V90.558H102.199V0.0859375Z" fill="#01AEF0"></path><path d="M230.862 0.0859375H183.864V90.558H230.862V0.0859375Z" fill="#01AEF0"></path><path d="M230.862 165.196H183.864V258.031H230.862V165.196Z" fill="#01AEF0"></path><path d="M289.586 90.558V0.0859375H432.919V45.3327H335.402V90.558H289.586Z" fill="#01AEF0"></path><path d="M289.586 165.196H332.481V211.603H432.919V258.01H289.586V165.196Z" fill="#01AEF0"></path><path d="M656.714 230.423C657.895 231.003 640.26 217.49 630.874 202.794C621.466 188.12 583.877 138.168 583.877 138.168C583.877 138.168 623.829 111.72 620.886 74.7023C617.943 37.7056 591.502 5.39266 562.14 3.02934C532.777 0.687509 473.451 0.0859375 473.451 0.0859375V258.031H519.847V156.387H533.937C533.937 156.387 548.049 155.786 557.436 170.481C566.844 185.177 590.342 216.91 590.342 216.91C590.342 216.91 599.149 229.822 610.898 240.994C627.48 256.742 656.714 258.031 656.714 258.031C656.714 258.031 656.585 230.402 656.671 230.402C656.671 230.402 656.692 230.402 656.714 230.423ZM558.08 100.957H521.393V39.1236C521.393 39.1236 537.889 38.6939 550.863 41.1862C560.679 43.0553 574.555 46.3425 574.77 69.2237C574.984 92.1049 558.08 100.957 558.08 100.957Z" fill="#01AEF0"></path><path d="M801.249 0.0859268C800.884 -0.0859508 678.344 0.0859268 678.344 0.0859268V260.373H797.319C797.319 260.373 902.053 234.72 900.979 126.051C899.905 17.3811 801.593 0.279289 801.249 0.0859268ZM794.118 212.613H723.945V44.8171H794.462C794.462 44.8171 852.542 64.0459 852.542 128.715C852.542 193.384 794.118 212.613 794.118 212.613Z" fill="#01AEF0"></path><path d="M0 347.923H57.565V150.5H0V105.232H432.919V149.92H102.199V347.923H164.468V385.521H0V347.923Z" fill="#01AEF0"></path></svg> 